<svg width="1500" height="940" viewBox="0 0 1500 940" fill="none" xmlns="http://www.w3.org/2000/svg" role="img" aria-label="BlacklistedAIProxy architecture diagram">
  <defs>
    <linearGradient id="bg" x1="0" y1="0" x2="1500" y2="940" gradientUnits="userSpaceOnUse">
      <stop stop-color="#020617"/>
      <stop offset="1" stop-color="#111827"/>
    </linearGradient>
    <linearGradient id="box" x1="0" y1="0" x2="1" y2="1">
      <stop stop-color="#0F172A"/>
      <stop offset="1" stop-color="#1E293B"/>
    </linearGradient>
    <marker id="arrow" markerWidth="10" markerHeight="10" refX="9" refY="5" orient="auto">
      <path d="M0 0L10 5L0 10V0Z" fill="#22D3EE"/>
    </marker>
  </defs>

  <rect width="1500" height="940" rx="24" fill="url(#bg)"/>
  <text x="70" y="90" fill="#E2E8F0" font-size="42" font-family="Segoe UI, Inter, Arial, sans-serif" font-weight="700">BlacklistedAIProxy — Runtime Architecture</text>

  <rect x="90" y="180" width="1320" height="680" rx="24" fill="none" stroke="#334155" stroke-width="2"/>

  <g font-family="Segoe UI, Inter, Arial, sans-serif">
    <rect x="150" y="260" width="250" height="90" rx="16" fill="url(#box)" stroke="#334155"/>
    <text x="190" y="315" fill="#E2E8F0" font-size="26" font-weight="700">Client Apps</text>

    <rect x="480" y="220" width="560" height="100" rx="16" fill="url(#box)" stroke="#0EA5E9"/>
    <text x="615" y="278" fill="#E2E8F0" font-size="28" font-weight="700">OpenAI-Compatible API Layer</text>

    <rect x="480" y="360" width="560" height="100" rx="16" fill="url(#box)" stroke="#7C3AED"/>
    <text x="635" y="418" fill="#E2E8F0" font-size="28" font-weight="700">Protocol Conversion Engine</text>

    <rect x="480" y="500" width="560" height="100" rx="16" fill="url(#box)" stroke="#22D3EE"/>
    <text x="600" y="558" fill="#E2E8F0" font-size="28" font-weight="700">Hybrid Router + Model Dispatch</text>

    <rect x="480" y="640" width="560" height="100" rx="16" fill="url(#box)" stroke="#38BDF8"/>
    <text x="605" y="698" fill="#E2E8F0" font-size="28" font-weight="700">Provider Account Pool Manager</text>

    <rect x="1110" y="260" width="230" height="120" rx="16" fill="url(#box)" stroke="#334155"/>
    <text x="1154" y="312" fill="#E2E8F0" font-size="22" font-weight="700">OTel + Langfuse</text>
    <text x="1188" y="342" fill="#94A3B8" font-size="17">Tracing</text>

    <rect x="1110" y="430" width="230" height="120" rx="16" fill="url(#box)" stroke="#334155"/>
    <text x="1157" y="482" fill="#E2E8F0" font-size="22" font-weight="700">Go uTLS Sidecar</text>
    <text x="1163" y="512" fill="#94A3B8" font-size="17">Fingerprinting</text>

    <rect x="1110" y="640" width="230" height="180" rx="16" fill="url(#box)" stroke="#334155"/>
    <text x="1176" y="690" fill="#E2E8F0" font-size="22" font-weight="700">Providers</text>
    <text x="1148" y="726" fill="#CBD5E1" font-size="18">Gemini • Claude • Grok</text>
    <text x="1145" y="754" fill="#CBD5E1" font-size="18">Codex • Qwen • Kimi</text>

    <path d="M400 305H470" stroke="#22D3EE" stroke-width="4" marker-end="url(#arrow)"/>
    <path d="M760 320V350" stroke="#22D3EE" stroke-width="4" marker-end="url(#arrow)"/>
    <path d="M760 460V490" stroke="#22D3EE" stroke-width="4" marker-end="url(#arrow)"/>
    <path d="M760 600V630" stroke="#22D3EE" stroke-width="4" marker-end="url(#arrow)"/>

    <path d="M1040 270H1100" stroke="#22D3EE" stroke-width="4" marker-end="url(#arrow)"/>
    <path d="M1040 430H1100" stroke="#22D3EE" stroke-width="4" marker-end="url(#arrow)"/>
    <path d="M1040 690H1100" stroke="#22D3EE" stroke-width="4" marker-end="url(#arrow)"/>
  </g>
</svg>
